<?xml version="1.0" standalone="no"?>
<!DOCTYPE svg PUBLIC "-//W3C//DTD SVG 20010904//EN"
 "http://www.w3.org/TR/2001/REC-SVG-20010904/DTD/svg10.dtd">
<svg version="1.0" xmlns="http://www.w3.org/2000/svg"
 width="200.000000pt" height="165.000000pt" viewBox="0 0 200.000000 165.000000"
 preserveAspectRatio="xMidYMid meet">

<g transform="translate(0.000000,165.000000) scale(0.100000,-0.100000)"
fill="#000000" stroke="none">
<path d="M500 1435 c-63 -18 -146 -71 -178 -114 -25 -34 -27 -52 -10 -69 22
-22 53 -12 92 27 56 57 124 84 219 86 56 1 81 5 88 16 11 18 11 30 -1 49 -13
21 -140 24 -210 5z"/>
<path d="M1001 1427 c-7 -9 -11 -26 -9 -39 3 -22 9 -23 93 -29 107 -6 152 -24
216 -84 50 -47 67 -53 87 -33 37 37 -21 114 -124 164 -49 24 -74 29 -154 32
-78 3 -98 1 -109 -11z"/>
<path d="M465 1218 c-47 -28 -111 -116 -95 -132 7 -7 25 -5 57 7 76 26 141 30
203 12 91 -27 110 -29 110 -13 0 22 -54 92 -91 119 -48 34 -131 37 -184 7z"/>
<path d="M1102 1229 c-59 -18 -153 -131 -129 -155 2 -3 32 4 66 16 76 25 159
25 231 0 30 -11 58 -19 63 -20 16 0 5 40 -22 77 -52 72 -135 104 -209 82z"/>
<path d="M1426 1130 c-45 -50 -48 -76 -8 -64 15 4 46 10 70 13 56 8 58 25 3
31 -43 5 -43 5 -22 24 19 17 20 36 2 36 -5 0 -25 -18 -45 -40z"/>
<path d="M230 1150 c0 -5 9 -14 20 -20 30 -16 15 -30 -31 -30 -21 0 -39 -4
-39 -10 0 -5 13 -10 29 -10 16 0 47 -7 69 -14 49 -17 59 -8 37 33 -22 44 -85
82 -85 51z"/>
<path d="M1683 1124 c-3 -10 7 -29 29 -52 48 -50 58 -72 58 -127 0 -32 5 -47
16 -52 42 -16 51 75 14 152 -35 72 -102 118 -117 79z"/>
<path d="M231 974 c-26 -33 -44 -99 -36 -131 9 -38 29 -21 37 31 4 27 16 58
27 70 24 26 28 56 7 56 -8 0 -24 -12 -35 -26z"/>
<path d="M715 982 c-18 -13 -39 -63 -37 -89 2 -24 35 -80 57 -95 17 -13 62 -9
75 7 17 21 4 38 -21 25 -16 -9 -25 -6 -49 19 -35 34 -38 66 -9 81 13 7 19 19
17 32 -3 23 -17 32 -33 20z"/>
<path d="M1560 958 c-93 -42 -253 -99 -387 -137 -215 -62 -332 -83 -463 -84
-100 0 -126 4 -199 28 -99 34 -143 71 -161 135 -22 80 -20 77 -35 57 -7 -10
-23 -55 -35 -100 -30 -112 -25 -224 13 -289 53 -90 146 -152 285 -190 103 -28
327 -30 457 -4 170 33 328 121 480 267 142 136 185 222 151 302 -18 44 -37 46
-106 15z m-69 -92 c-26 -31 -184 -128 -292 -180 -139 -67 -242 -95 -374 -103
-188 -10 -359 39 -439 127 -20 22 -36 44 -36 49 0 5 24 -4 53 -19 97 -53 196
-74 347 -74 214 0 413 49 636 159 125 61 120 59 105 41z"/>
<path d="M995 940 c-4 -6 3 -18 15 -28 12 -10 25 -33 29 -51 9 -48 31 -53 31
-8 0 24 -9 46 -26 66 -27 33 -39 38 -49 21z"/>
<path d="M898 869 c-31 -17 -20 -25 37 -25 57 0 63 4 43 24 -15 15 -57 15 -80
1z"/>
</g>
</svg>
